# xmcd
#
# Track frame offsets:
#	150
#	13199
#	26667
#	41160
#	54859
#	66503
#	81113
#	94955
#	109659
#	123859
#	138746
#	150734
#	164776
#	178439
#	193354
#	207214
#	220763
#	234125
#	248690
#	263016
#	276149
#	292175
#	306292
#
# Disc length: 4248
#
# Revision: 1
# Processed by: cddbd v1.5.1PL0 Copyright (c) Steve Scherf et al.
# Submitted via: CDex 1.50Beta5
# Normalized: r0:DSETVAR1,TDELIM( - )
#
DISCID=5f109617
DTITLE=Various Artist - The Great Race Record Labels Volume 2 - Columbia
DYEAR=2000
DGENRE=Blues
TTITLE0=Pink Anderson - Every Day In The Week Blues
TTITLE1=Georgia Cotton Pickers - She Looks So Good
TTITLE2=Barbecue Bob - Goin' Up The Country
TTITLE3=Washington Phillips - Denomination Blues Pt. 1
TTITLE4=Washington Phillips - Denomination Blues Pt. 2
TTITLE5=Peg Leg Howell - New Prison Blues
TTITLE6=Blind Willie Johnson - I Know His Blood Can Make Me Whole
TTITLE7=Blind Willie McTell - Razor Ball
TTITLE8=Charley Lincoln - Country Breakdown
TTITLE9=Curley Weaver - Sweet Petunia
TTITLE10=Oak Cliff T-Bone - Trinity River Blues
TTITLE11=Henry Townsend - Henry's Worry Blues
TTITLE12=Willie Reed - Dreaming Blues
TTITLE13=Bessie Smith - Backwater Blues
TTITLE14="Talking" Billy Anderson - Lonely Billy Blues
TTITLE15=Ed Bell - Barefoot Bill's Hard Luck Blues
TTITLE16=Lewis Black - Spanish Blues
TTITLE17=Lonnie Coleman - Old Rock Island Blues
TTITLE18=Martha Copeland - Black Snake Blues
TTITLE19=Alec Johnson - Sundown Blues
TTITLE20=Coley Jones - Traveling Man
TTITLE21=Kansas Joe - I Want That
TTITLE22=Whistlin' Alex More - Ice Pick Blues
EXTD=YEAR: 2000
EXTT0=
EXTT1=
EXTT2=
EXTT3=
EXTT4=
EXTT5=
EXTT6=
EXTT7=
EXTT8=
EXTT9=
EXTT10=
EXTT11=
EXTT12=
EXTT13=
EXTT14=
EXTT15=
EXTT16=
EXTT17=
EXTT18=
EXTT19=
EXTT20=
EXTT21=
EXTT22=
PLAYORDER=
